HIERARCHY
ROOT Hips
{
 OFFSET 0.000000 0.000000 0.000000
 CHANNELS 6 Xposition Yposition Zposition Yrotation Xrotation Zrotation
 JOINT Chest
 {
  OFFSET 0.000000 10.388337 0.005184
  CHANNELS 3 Yrotation Xrotation Zrotation
  JOINT Chest2
  {
   OFFSET 0.000000 10.458247 -0.010579
   CHANNELS 3 Yrotation Xrotation Zrotation
   JOINT Chest3
   {
    OFFSET 0.000000 10.415828 0.000000
    CHANNELS 3 Yrotation Xrotation Zrotation
    JOINT Chest4
    {
     OFFSET 0.000000 10.405206 0.000000
     CHANNELS 3 Yrotation Xrotation Zrotation
     JOINT Neck
     {
      OFFSET 0.000000 15.720090 0.000000
      CHANNELS 3 Yrotation Xrotation Zrotation
      JOINT Head
      {
       OFFSET 0.000000 9.732643 -0.022378
       CHANNELS 3 Yrotation Xrotation Zrotation
       End Site
       {
        OFFSET 0.000000 18.603619 -0.011814
       }
      }
     }
     JOINT RightCollar
     {
      OFFSET -3.167735 10.388953 0.000000
      CHANNELS 3 Yrotation Xrotation Zrotation
      JOINT RightShoulder
      {
       OFFSET -14.584825 0.000000 0.000000
       CHANNELS 3 Yrotation Xrotation Zrotation
       JOINT RightElbow
       {
        OFFSET 0.000000 -31.921689 0.000000
        CHANNELS 3 Yrotation Xrotation Zrotation
        JOINT RightWrist
        {
         OFFSET 0.000000 -25.835217 0.000000
         CHANNELS 3 Yrotation Xrotation Zrotation
         End Site
         {
          OFFSET 0.000000 -19.128920 0.000000
         }
        }
       }
      }
     }
     JOINT LeftCollar
     {
      OFFSET 3.167735 10.388953 0.000000
      CHANNELS 3 Yrotation Xrotation Zrotation
      JOINT LeftShoulder
      {
       OFFSET 14.584825 0.000000 0.000000
       CHANNELS 3 Yrotation Xrotation Zrotation
       JOINT LeftElbow
       {
        OFFSET 0.000000 -31.921689 0.000000
        CHANNELS 3 Yrotation Xrotation Zrotation
        JOINT LeftWrist
        {
         OFFSET 0.000000 -25.835217 0.000000
         CHANNELS 3 Yrotation Xrotation Zrotation
         End Site
         {
          OFFSET 0.000000 -19.128920 0.000000
         }
        }
       }
      }
     }
    }
   }
  }
 }
 JOINT RightHip
 {
  OFFSET -8.403278 -0.025659 -0.002592
  CHANNELS 3 Yrotation Xrotation Zrotation
  JOINT RightKnee
  {
   OFFSET 0.000000 -44.040977 0.002477
   CHANNELS 3 Yrotation Xrotation Zrotation
   JOINT RightAnkle
   {
    OFFSET 0.000000 -42.951162 0.004189
    CHANNELS 3 Yrotation Xrotation Zrotation
    JOINT RightToe
    {
     OFFSET 0.000000 -5.494238 12.197485
     CHANNELS 3 Yrotation Xrotation Zrotation
     End Site
     {
      OFFSET 0.000000 -1.538716 6.371628
     }
    }
   }
  }
 }
 JOINT LeftHip
 {
  OFFSET 8.403278 -0.025659 -0.002592
  CHANNELS 3 Yrotation Xrotation Zrotation
  JOINT LeftKnee
  {
   OFFSET 0.000000 -44.040977 0.002477
   CHANNELS 3 Yrotation Xrotation Zrotation
   JOINT LeftAnkle
   {
    OFFSET 0.000000 -42.951162 0.004189
    CHANNELS 3 Yrotation Xrotation Zrotation
    JOINT LeftToe
    {
     OFFSET 0.000000 -5.494238 12.197485
     CHANNELS 3 Yrotation Xrotation Zrotation
     End Site
     {
      OFFSET 0.000000 -1.538716 6.371628
     }
    }
   }
  }
 }
}
MOTION
Frames: 10
Frame Time: 0.008333
0.000000 92.319940 0.000000 0.000000 -5.767889 0.000000 0.000000 11.653876 0.000000 0.000000 -5.885988 0.000000 0.000000 -0.000000 0.000000 0.000000 -0.000000 0.000000 0.000000 12.528808 0.000000 0.000000 0.711711 0.000000 0.000000 -0.000000 0.000000 0.000000 0.000000 -90.000000 0.000000 -2.309063 0.000000 0.000000 2.309063 0.000000 0.000000 -0.000000 0.000000 0.000000 -0.000000 90.000000 0.000000 -2.309063 0.000000 0.000000 2.309063 0.000000 0.000000 8.520374 0.000000 0.000000 1.905768 0.000000 -0.000000 -4.658254 0.000000 0.000000 -0.000000 0.000000 0.000000 8.520374 0.000000 0.000000 1.905768 0.000000 -0.000000 -4.658254 0.000000 0.000000 -0.000000 0.000000
-282.939474 92.581149 496.369002 126.757704 -6.820777 -0.814087 -1.611301 4.258583 -0.987940 -0.043671 0.120193 -0.035066 -0.077682 0.213642 -0.062398 -1.551231 4.129323 -1.264391 2.718089 18.399626 9.807914 1.856129 -1.433089 17.127795 0.923121 5.168770 1.314802 -1.059197 -3.527093 -5.690208 7.818008 -11.054326 0.777806 -1.565952 4.405975 3.448003 2.760332 2.510358 1.848759 -5.992632 -4.230036 6.620975 -13.702974 -1.366078 -8.392759 -0.756821 -1.696112 0.869289 -5.654611 -0.878149 -2.032701 -3.051634 14.828849 -0.408586 -1.371614 -7.244770 1.727758 0.121516 0.490373 0.114692 -2.599265 11.443680 -4.239207 24.053704 8.671292 1.048769 -4.437240 -16.914622 -0.991874 -0.097453 0.348823 0.059980
-282.855547 92.555428 496.269553 126.830652 -6.812917 -0.790975 -1.645943 4.252839 -0.987930 -0.044615 0.120175 -0.035137 -0.079359 0.213603 -0.062524 -1.581956 4.123201 -1.266329 2.716684 18.388126 9.822394 1.847766 -1.453136 17.155394 0.911413 5.171588 1.330908 -1.090443 -3.603148 -5.773363 7.974550 -11.278515 0.955761 -1.549518 4.380481 3.467905 2.665424 2.474229 1.719828 -6.112873 -4.192062 6.699790 -13.851056 -1.675865 -8.829395 -0.725552 -1.737807 0.789191 -5.636045 -1.011881 -2.104932 -3.112010 15.261650 -0.375959 -1.388750 -7.500377 1.691699 0.121627 0.420042 0.141825 -2.783255 11.434520 -4.310625 24.065532 8.809244 1.058094 -4.395105 -17.033323 -0.923973 -0.101072 0.231865 -0.003249
-282.756954 92.526436 496.155018 126.907549 -6.778426 -0.761083 -1.680677 4.230950 -0.991641 -0.045468 0.119315 -0.035195 -0.080879 0.212084 -0.062631 -1.614230 4.100733 -1.271420 2.714607 18.380157 9.838445 1.838083 -1.466461 17.185918 0.902719 5.181413 1.346724 -1.122219 -3.667241 -5.847542 8.143770 -11.493602 1.104566 -1.534982 4.350728 3.472019 2.570284 2.432116 1.580406 -6.222061 -4.112518 6.787243 -13.942057 -1.987933 -9.257906 -0.693663 -1.779029 0.701505 -5.639218 -1.155167 -2.178842 -3.154928 15.687080 -0.351304 -1.407207 -7.774660 1.656881 0.121249 0.367918 0.167929 -2.949764 11.425625 -4.388458 24.070890 8.921808 1.056197 -4.366707 -17.134661 -0.838950 -0.103538 0.121525 -0.062298
-282.644329 92.495839 496.029528 126.989133 -6.717111 -0.733954 -1.717450 4.194939 -0.992080 -0.046261 0.117772 -0.035173 -0.082297 0.209363 -0.062598 -1.648504 4.064961 -1.276708 2.712603 18.374892 9.855641 1.828482 -1.474712 17.218386 0.903770 5.192642 1.360794 -1.153131 -3.717511 -5.910327 8.317914 -11.697711 1.219462 -1.523709 4.319829 3.458078 2.482624 2.392289 1.447937 -6.320001 -4.010002 6.859874 -13.989968 -2.296909 -9.672659 -0.657812 -1.817547 0.611843 -5.669127 -1.300618 -2.243302 -3.170635 16.087721 -0.332193 -1.431119 -8.055226 1.623496 0.119635 0.331023 0.191152 -3.091886 11.413730 -4.460277 24.075250 9.012433 1.049490 -4.352844 -17.223538 -0.757274 -0.106071 0.021545 -0.107249
-282.517492 92.465275 495.896014 127.074952 -6.636345 -0.719345 -1.756078 4.149899 -0.983449 -0.046998 0.115865 -0.035001 -0.083617 0.206002 -0.062302 -1.683360 4.022373 -1.278573 2.710629 18.370716 9.873595 1.818822 -1.480897 17.252183 0.915425 5.200100 1.374348 -1.179962 -3.753098 -5.959283 8.488588 -11.887158 1.297347 -1.508925 4.288708 3.430410 2.406677 2.362977 1.332763 -6.411912 -3.907388 6.903061 -13.999267 -2.591005 -10.065636 -0.618650 -1.851968 0.521001 -5.718554 -1.434596 -2.288122 -3.166055 16.450882 -0.317298 -1.460247 -8.331333 1.588637 0.117081 0.304252 0.212562 -3.207920 11.404829 -4.515774 24.089187 9.082048 1.045616 -4.359664 -17.304194 -0.696734 -0.109243 -0.067742 -0.132198
-282.376317 92.435966 495.755296 127.161973 -6.546381 -0.720926 -1.793991 4.103622 -0.965616 -0.047655 0.113999 -0.034694 -0.084796 0.202713 -0.061765 -1.715835 3.981198 -1.275725 2.708667 18.365566 9.891708 1.809023 -1.488864 17.286317 0.930968 5.195938 1.388341 -1.195877 -3.774764 -5.991469 8.651399 -12.056262 1.337081 -1.484547 4.259165 3.400248 2.343267 2.340143 1.238538 -6.505135 -3.818729 6.915245 -13.969058 -2.856422 -10.431796 -0.575998 -1.881336 0.424602 -5.773628 -1.543550 -2.311042 -3.154483 16.770259 -0.305188 -1.491836 -8.597678 1.549933 0.114065 0.283670 0.233212 -3.292903 11.410940 -4.549839 24.106502 9.128406 1.043707 -4.382999 -17.375018 -0.661375 -0.112567 -0.150667 -0.139205
-282.221455 92.408490 495.606970 127.251870 -6.453435 -0.737734 -1.831172 4.060948 -0.940831 -0.048281 0.112396 -0.034276 -0.085919 0.199887 -0.061028 -1.746133 3.945715 -1.267913 2.706576 18.358396 9.908058 1.799304 -1.500672 17.317363 0.946323 5.174567 1.403091 -1.198590 -3.783675 -6.008540 8.800757 -12.199668 1.344558 -1.453952 4.235808 3.377191 2.293516 2.314478 1.167811 -6.601095 -3.743375 6.897567 -13.904066 -3.087739 -10.773310 -0.528348 -1.906965 0.321236 -5.830299 -1.619620 -2.314622 -3.144779 17.042732 -0.296931 -1.522562 -8.853295 1.510208 0.109959 0.267733 0.251538 -3.345541 11.441078 -4.559222 24.103538 9.149347 1.033998 -4.417896 -17.432161 -0.641417 -0.116233 -0.231530 -0.135232
-282.054118 92.382834 495.450454 127.349365 -6.358733 -0.767501 -1.869879 4.020462 -0.910817 -0.048948 0.110960 -0.033713 -0.087115 0.197355 -0.060035 -1.777168 3.913703 -1.254319 2.703650 18.350484 9.920623 1.789149 -1.514021 17.341775 0.962117 5.141908 1.418089 -1.192184 -3.782977 -6.015133 8.933388 -12.314209 1.330269 -1.427683 4.222618 3.365480 2.260532 2.286662 1.119921 -6.697932 -3.673245 6.848523 -13.813064 -3.288808 -11.088021 -0.485272 -1.928115 0.210250 -5.894083 -1.662898 -2.301945 -3.140192 17.270386 -0.294991 -1.550311 -9.099911 1.472787 0.104563 0.255486 0.266520 -3.371138 11.495228 -4.545382 24.074100 9.146641 1.012831 -4.465291 -17.473589 -0.626329 -0.120542 -0.313127 -0.127917
-281.875932 92.358564 495.285388 127.456040 -6.259921 -0.806495 -1.910090 3.978450 -0.877638 -0.049642 0.109461 -0.032981 -0.088358 0.194713 -0.058739 -1.809878 3.880555 -1.234942 2.698748 18.343384 9.929009 1.776777 -1.525936 17.359111 0.975715 5.106879 1.431170 -1.179045 -3.776151 -6.014163 9.044780 -12.396828 1.305598 -1.408895 4.220684 3.364525 2.242259 2.262172 1.090570 -6.791256 -3.601627 6.767879 -13.723788 -3.470570 -11.356968 -0.478138 -1.939752 0.097117 -5.963354 -1.680392 -2.277233 -3.143876 17.460889 -0.299707 -1.576738 -9.341160 1.437023 0.098946 0.246115 0.280008 -3.377858 11.566428 -4.518318 24.033465 9.122429 0.984577 -4.511296 -17.497487 -0.612060 -0.124454 -0.397123 -0.123603
